<svg id="Capa_1" data-name="Capa 1" xmlns="http://www.w3.org/2000/svg" viewBox="0 0 180.09 180"><defs><style>.cls-1{fill:#be0811;}.cls-2{fill:#fff;}.cls-3{fill:gray;}.cls-4{fill:#6e6e6e;}.cls-5{fill:#848483;}.cls-6{fill:#999;}</style></defs><rect class="cls-1" width="180" height="180" rx="14.26"/><rect class="cls-2" x="23.15" y="38.4" width="20.58" height="102.41"/><polygon class="cls-3" points="103.95 102.47 102.53 100.58 102.22 101.43 103.95 102.47"/><path class="cls-4" d="M67.86,64.36l-11.23,3v6.4L81,88.54C75.79,78.77,70.6,69.16,67.86,64.36"/><polygon class="cls-4" points="56.63 141.6 77.22 141.6 77.22 111.75 56.63 80.44 56.63 141.6"/><polygon class="cls-5" points="136.36 141.6 156.94 141.6 156.94 137.31 136.36 123.03 136.36 141.6"/><path class="cls-5" d="M96.37,117.52h0s-7.7-14.64-15.36-29L56.63,73.72v6.72l20.59,31.31v-11.7l22.55,30.42L97.64,114Z"/><polygon class="cls-4" points="149.14 60.35 143.28 66.7 129.46 81.68 127.37 78.72 113.04 97.98 107.9 104.88 106.82 106.33 103.95 102.47 102.53 100.58 97.64 114.04 99.77 130.47 106.82 139.98 125.07 115.31 125.45 114.8 128.11 111.2 136.36 100.05 136.36 114.75 149.27 112.94 156.94 89.83 156.94 75.11 149.14 60.35"/><polygon class="cls-6" points="149.27 112.94 136.36 114.75 136.36 123.02 156.94 137.31 156.94 111.87 156.94 104.59 156.94 89.83 149.27 112.94"/><path class="cls-5" d="M71.09,58.38l-5.38-7.23L56.63,39V67.32l11.23-3c2.07-1.69,3.23-6,3.23-6"/><polygon class="cls-6" points="149.23 49.34 127.37 78.72 129.46 81.68 143.28 66.7 149.14 60.35 156.94 75.11 156.94 51.9 156.94 48.83 156.94 38.98 149.23 49.34"/><path class="cls-6" d="M81,88.54c7.66,14.35,15.36,29,15.36,29l2.13,3.17,1.27-5.9,2.46-13.37.3-.85L71.09,58.38l-3.23,6c.12,0,7.93,14.41,13.15,24.18"/></svg>

