<svg id="Capa_1" data-name="Capa 1" xmlns="http://www.w3.org/2000/svg" viewBox="0 0 601.4 156.74"><defs><style>.cls-1,.cls-2{fill:#be0811;}.cls-1{fill-rule:evenodd;}.cls-3{fill:gray;}.cls-4{fill:#6e6e6e;}.cls-5{fill:#848483;}.cls-6{fill:#999;}</style></defs><path class="cls-1" d="M560.67,143.7c-1.34,0-2.59,0-3.84,0a.88.88,0,0,1-1-.78l-1.14-4.32c-.63-2.34-1.5-3-3.87-3-.68,0-.92.18-.9.88,0,2,0,4.05,0,6.08,0,.8-.14,1.18-1,1.09-1.08-.09-2.51.33-3.16-.21s-.2-2.05-.21-3.13c0-5.23,0-10.45,0-15.68,0-.57,0-1,.74-1.11a32.72,32.72,0,0,1,9,0c2.75.53,4.31,2.06,4.68,4.41.44,2.72-.48,4.43-3.36,6.12a5.88,5.88,0,0,1,2.67,4c.44,1.83,1,3.64,1.47,5.54m-10.75-14.06c0,3.16.25,3.36,3.27,2.63a3.43,3.43,0,0,0,.45-.16,2.81,2.81,0,0,0,1.79-3.41c-.42-1.6-2.27-2.43-4.79-2-1.43.27-.44,1.53-.71,2.3a2,2,0,0,0,0,.6"/><path class="cls-1" d="M528.78,123.3a15,15,0,0,1,4.3.63c.7.2.94.48.71,1.19s-.24,1.95-.79,2.48-1.47-.35-2.28-.46a7.27,7.27,0,0,0-3.47.07,1.87,1.87,0,0,0-1.41,1.51,1.75,1.75,0,0,0,1,1.8,23.68,23.68,0,0,0,3.54,1.54c1.85.81,3.54,1.82,4.18,3.91,1.09,3.53-.93,6.68-4.88,7.64a14,14,0,0,1-7.75-.49c-.62-.2-1.09-.42-.73-1.27s.21-2,.76-2.48,1.55.39,2.39.55a8.74,8.74,0,0,0,4.19.14,2.08,2.08,0,0,0,1.67-1.72,2,2,0,0,0-1.05-2,12.82,12.82,0,0,0-2.54-1.12c-2.11-.8-4.11-1.77-5-4-1.32-3.27.92-6.79,4.82-7.58a7.3,7.3,0,0,1,2.39-.27"/><path class="cls-1" d="M570.88,133.61c0-3,0-6.08,0-9.11,0-.74.17-1,.94-1a18.3,18.3,0,0,0,2.67,0c.78-.07.94.22.93.95,0,4.73,0,9.47,0,14.21,0,1.05.29,1.28,1.28,1.24,2-.08,4,0,6,0,.64,0,.81.19.83.82.1,3,.12,3-2.78,3s-5.75,0-8.63,0c-.88,0-1.18-.17-1.16-1.12.07-3,0-6,0-9"/><path class="cls-1" d="M542.58,141.26a2.66,2.66,0,1,1-2.66-2.8,2.63,2.63,0,0,1,2.66,2.8"/><path class="cls-1" d="M567.86,141.21a2.66,2.66,0,1,1-5.32,0,2.66,2.66,0,1,1,5.32,0"/><path class="cls-1" d="M591,141.25a2.66,2.66,0,1,1-2.67-2.79,2.63,2.63,0,0,1,2.67,2.79"/><rect class="cls-2" x="10.13" y="40.39" width="20.58" height="102.41"/><polygon class="cls-3" points="90.93 104.46 89.52 102.56 89.21 103.41 90.93 104.46"/><path class="cls-4" d="M54.84,66.34l-11.22,3v6.41L68,90.52c-5.21-9.77-10.4-19.38-13.15-24.18"/><polygon class="cls-4" points="43.62 143.58 64.2 143.58 64.2 113.73 43.62 82.42 43.62 143.58"/><polygon class="cls-5" points="123.35 143.58 143.93 143.58 143.93 139.29 123.35 125.01 123.35 143.58"/><path class="cls-5" d="M83.36,119.51h0s-7.7-14.64-15.37-29L43.62,75.71v6.71L64.2,113.74V102l22.55,30.41L84.63,116Z"/><polygon class="cls-4" points="136.13 62.34 130.27 68.69 116.44 83.67 114.35 80.7 100.02 99.96 94.89 106.86 93.81 108.32 90.93 104.46 89.52 102.56 84.63 116.02 86.75 132.45 93.81 141.96 112.06 117.29 112.43 116.79 115.1 113.19 123.35 102.04 123.35 116.73 136.26 114.93 143.93 91.81 143.93 77.09 136.13 62.34"/><polygon class="cls-6" points="136.25 114.93 123.34 116.73 123.34 125.01 143.93 139.29 143.93 113.85 143.93 106.58 143.93 91.81 136.25 114.93"/><path class="cls-5" d="M58.08,60.37l-5.39-7.23L43.62,41V69.3l11.22-3c2.08-1.7,3.24-6,3.24-6"/><polygon class="cls-6" points="136.21 51.33 114.35 80.7 116.44 83.67 130.27 68.68 136.13 62.34 143.93 77.09 143.93 53.88 143.93 50.82 143.93 40.96 136.21 51.33"/><path class="cls-6" d="M68,90.52c7.67,14.36,15.37,29,15.37,29l2.13,3.17,1.26-5.9,2.46-13.38.31-.85L58.08,60.37l-3.24,6c.13,0,7.94,14.41,13.15,24.18"/><path class="cls-2" d="M199.31,38.29l46.76,104.5h-22.3l-6.92-15.56H181.78l-6.92,15.56H152.62Zm9.41,70.77L199.38,87.4l-9.47,21.66Z"/><path class="cls-2" d="M293.59,39.75a52.3,52.3,0,0,1,36.78,15.19L315.69,69.61a30.27,30.27,0,0,0-22-9.21,29.75,29.75,0,0,0-22,9.21,31.16,31.16,0,0,0,0,44.09,29.72,29.72,0,0,0,22,9.15,31.06,31.06,0,0,0,28.08-17.92H292.57V85.3h52.6c1.47,19.14-4.81,33-14.93,43.07a50.25,50.25,0,0,1-36.72,15.19,49.64,49.64,0,0,1-36.65-15.19,49.76,49.76,0,0,1-15.25-36.71,50.39,50.39,0,0,1,15.25-36.79,49.63,49.63,0,0,1,36.65-15.31Z"/><polygon class="cls-2" points="416 40.14 416 60.66 374.84 60.66 374.84 81.3 405.71 81.3 405.71 101.82 374.84 101.82 374.84 122.47 416 122.47 416 142.92 354.25 142.92 354.25 40.14 416 40.14"/><polygon class="cls-2" points="492.53 97.65 492.53 40.79 513.17 40.79 513.17 145.55 451.42 86.72 451.42 143.58 430.84 143.58 430.84 38.89 492.53 97.65"/><path class="cls-4" d="M295.38,33.41h-2.51v-20H300a6.17,6.17,0,0,1,4.91,1.81,6.08,6.08,0,0,1,1.59,4.13,5.7,5.7,0,0,1-1.73,4.26,6.13,6.13,0,0,1-4.5,1.69h-4.85Zm0-10.2H300a3.93,3.93,0,0,0,2.86-1.07,3.74,3.74,0,0,0,1.08-2.8,4,4,0,0,0-1-2.67,3.41,3.41,0,0,0-2.8-1.17h-4.77Z"/><path class="cls-4" d="M321.06,13.4h2.08V26.47q0,3.93-1.93,5.64a7.32,7.32,0,0,1-5,1.71q-3.48,0-5.14-1.76c-1.12-1.17-1.68-3-1.68-5.59V13.4h2.51V26.47a7.18,7.18,0,0,0,.54,3.29A3.29,3.29,0,0,0,314,31.17a6,6,0,0,0,2.3.45,4.72,4.72,0,0,0,3.52-1.22,5.44,5.44,0,0,0,1.2-3.93Z"/><path class="cls-4" d="M327.84,33.41v-20h7.92a6,6,0,0,1,4.44,1.47,4.67,4.67,0,0,1,1.44,3.39c0,2.27-1.18,3.77-3.55,4.52a5.39,5.39,0,0,1,3.14,1.93,5.21,5.21,0,0,1,1,3.16,5.37,5.37,0,0,1-1.59,3.95,6.67,6.67,0,0,1-4.9,1.59ZM330.26,22h4.36c1.8,0,3-.35,3.62-1a3.57,3.57,0,0,0,.91-2.42,2.82,2.82,0,0,0-1-2.23,4.3,4.3,0,0,0-2.91-.85h-5Zm0,9.23h5.37a4.42,4.42,0,0,0,3-.95,3.15,3.15,0,0,0,1.07-2.48,4.27,4.27,0,0,0-.48-2,3.42,3.42,0,0,0-1.36-1.41,5.52,5.52,0,0,0-2.63-.5h-5Z"/><polygon class="cls-4" points="357.81 31.21 357.81 33.41 345.99 33.41 345.99 13.4 348.56 13.4 348.56 31.21 357.81 31.21"/><rect class="cls-4" x="360.7" y="13.4" width="2.51" height="20.01"/><path class="cls-4" d="M380.19,26.68l2.29.52q-1.65,6.61-7.42,6.62a6.89,6.89,0,0,1-6-3.07,12.74,12.74,0,0,1-2.16-7.54,11.45,11.45,0,0,1,2.26-7.42,7.35,7.35,0,0,1,6.05-2.8c3.76,0,6.16,2.15,7.23,6.44l-2.36.46q-1.29-4.77-4.88-4.77a4.64,4.64,0,0,0-4.11,2.22,11.24,11.24,0,0,0-1.46,6.23,10.44,10.44,0,0,0,1.49,5.9,4.57,4.57,0,0,0,4,2.23c2.55,0,4.24-1.68,5.07-5"/><rect class="cls-4" x="385.59" y="13.4" width="2.51" height="20.01"/><path class="cls-4" d="M393.09,33.41v-20h6.72a8,8,0,0,1,6.59,2.89,10.75,10.75,0,0,1,2.36,7.06,11.13,11.13,0,0,1-2.3,7.15,7.13,7.13,0,0,1-5.83,2.91Zm2.51-2.13h4.06a5.76,5.76,0,0,0,4.9-2.22,9.6,9.6,0,0,0,1.67-5.88,9.28,9.28,0,0,0-1.59-5.32,5.56,5.56,0,0,0-5-2.36H395.6Z"/><path class="cls-4" d="M425.39,33.41h-2.56l-2-5.85h-7.43l-1.79,5.85h-2.09l6.5-20h2.84Zm-5.1-7.72-3.1-9.62-3.1,9.62Z"/><path class="cls-4" d="M428,33.41v-20h6.71a8.05,8.05,0,0,1,6.6,2.89,10.81,10.81,0,0,1,2.36,7.06,11.19,11.19,0,0,1-2.3,7.15,7.14,7.14,0,0,1-5.84,2.91Zm2.5-2.13h4.06a5.75,5.75,0,0,0,4.9-2.22,9.6,9.6,0,0,0,1.67-5.88,9.28,9.28,0,0,0-1.59-5.32,5.56,5.56,0,0,0-5-2.36H430.5Z"/><polygon class="cls-4" points="474.58 13.4 467.84 33.41 465.42 33.41 458.68 13.4 461.3 13.4 466.88 29.91 472.4 13.4 474.58 13.4"/><rect class="cls-4" x="477.19" y="13.4" width="2.51" height="20.01"/><path class="cls-4" d="M498.17,33.41h-2.56l-2-5.85h-7.43l-1.79,5.85h-2.09l6.5-20h2.84Zm-5.1-7.72L490,16.07l-3.09,9.62Z"/><polygon class="cls-4" points="512.59 31.21 512.59 33.41 500.78 33.41 500.78 13.4 503.34 13.4 503.34 31.21 512.59 31.21"/></svg>