<svg id="Capa_1" data-name="Capa 1" xmlns="http://www.w3.org/2000/svg" viewBox="0 0 1080 1080"><defs><style>.cls-1{font-size:109.26px;}.cls-1,.cls-2,.cls-3{fill:#e94446;}.cls-1,.cls-3{font-family:Poppins-SemiBold, Poppins;font-weight:600;}.cls-3{font-size:72px;}</style></defs><text class="cls-1" transform="translate(201.99 604.86) scale(1.02 1)">StellarMotion</text><path class="cls-2" d="M120.51,579h6.58c.22,3.24.43,6.24.59,8.52L141.83,572H75.36v-5.66c7.87-2.82,16-4.59,22.94-8.47,13.1-7.31,19.66-19.57,22-34.18.8-5,.77-5,6.75-4v38.92c-2.64-1.35-5.41-1.86-6.24-3.42-1-1.93-.46-4.72-.51-5.7l-14.12,15h66.44v6.13c-6.74,2-13.59,3.21-19.62,6.1-14.86,7.11-22.53,19.8-25.22,35.74-.41,2.46,0,5.19-3.94,5-4.15-.16-3.28-3.08-3.3-5.43C120.47,601.18,120.51,590.3,120.51,579Z"/><path class="cls-2" d="M145.17,536.05a2,2,0,0,1-2.3,0,3.41,3.41,0,0,1-.26-4.82q4.3-4,8.65-8,6.75-6.27,13.52-12.52c.3-.28.53-.88,1.09-.6s.48.89.49,1.4c0,1.1.13,2.07,1.58,2.31.57.1.75.61.26,1.06l-.35.33-22,20.39A1.64,1.64,0,0,1,145.17,536.05Z"/><path class="cls-2" d="M152.87,544.68a2.54,2.54,0,0,1,1-1.25l23.34-21.64c1.47-1.36,2.94-1.38,4.16-.1a2.65,2.65,0,0,1,.32,3.64,5.7,5.7,0,0,1-.69.7l-23.25,21.56a2.65,2.65,0,0,1-1.32.87c-.34-.89.37-1.23.81-1.65,2.57-2.45,5.19-4.86,7.81-7.26,1.22-1.11,2.46-2.12,2.2-4.17-.09-.74.27-1.53.22-2.34a17.52,17.52,0,0,1-.27,2.71c-.08.34-.1.77-.59.8s-.68-.28-.89-.67c-.64-1.23-.88-1.3-1.82-.44-3.08,2.82-6.11,5.68-9.2,8.49C154.18,544.36,153.79,545.1,152.87,544.68Z"/><path class="cls-2" d="M152.87,544.68q5.58-5.17,11.18-10.33c.4-.37.74-1.1,1.41-.81s.71,1.15.76,1.84a10.13,10.13,0,0,0,.21,1.11,4.63,4.63,0,0,0,.16-3.27c-.43-1.24.39-1.63,1-2.12.48-.37.51.18.55.5a8.76,8.76,0,0,1-.34,3.54c-.09.31-.39.65-.16,1,1,1.31,0,1.85-.68,2.5q-5.3,4.95-10.61,9.87a2.41,2.41,0,0,1-3-.75A2.38,2.38,0,0,1,152.87,544.68Z"/><path class="cls-2" d="M145.17,536.05l23.22-21.54c-1.22-.51-1.66.25-2.45.67l-.28-4.79c-.48-.09-.65.24-.88.44L143.07,531c-1,.92-1.08,3.88-.2,5.06-2-1.17-2.33-3-.82-4.47,2.59-2.45,5.22-4.86,7.83-7.28L172,503.81a9.18,9.18,0,0,1,1.11-1,2.71,2.71,0,0,1,3.52.55,2.75,2.75,0,0,1,.29,3.46,7.83,7.83,0,0,1-1,1Q161.28,521.39,146.63,535A3.7,3.7,0,0,1,145.17,536.05Z"/><text/><text class="cls-3" transform="translate(956.3 570.16) scale(1.02 1)">™</text></svg>
