<svg id="Capa_1" data-name="Capa 1" xmlns="http://www.w3.org/2000/svg" viewBox="0 0 421.98 443.55"><defs><style>.cls-1{fill:#fff;}.cls-2{fill:#e94446;}</style></defs><rect class="cls-1" width="421.98" height="443.55"/><path class="cls-2" d="M194,245.34H210.5c.56,6.81,1.08,13.12,1.47,17.91,12.5-11.42,25.41-23.21,35.56-32.5h-167V218.84c19.77-5.93,40.19-9.65,57.64-17.81,32.9-15.39,49.38-41.18,55.25-71.92,2-10.48,1.93-10.49,17-8.44v81.88c-6.62-2.83-13.59-3.92-15.67-7.19-2.59-4.06-1.15-9.92-1.28-12l-35.49,31.46H324.87v12.9c-16.93,4.27-34.14,6.75-49.29,12.82-37.35,15-56.62,41.67-63.36,75.21-1,5.16.07,10.92-9.9,10.6-10.44-.34-8.26-6.48-8.29-11.43C193.87,292.07,194,269.19,194,245.34Z"/><path class="cls-2" d="M194,245.34H210.5c.56,6.81,1.08,13.12,1.47,17.91,12.5-11.42,25.41-23.21,35.56-32.5h-167V218.84c19.77-5.93,40.19-9.65,57.64-17.81,32.9-15.39,49.38-41.18,55.25-71.92,2-10.48,1.93-10.49,17-8.44v81.88c-6.62-2.83-13.59-3.92-15.67-7.19-2.59-4.06-1.15-9.92-1.28-12l-35.49,31.46H324.87v12.9c-16.93,4.27-34.14,6.75-49.29,12.82-37.35,15-56.62,41.67-63.36,75.21-1,5.16.07,10.92-9.9,10.6-10.44-.34-8.26-6.48-8.29-11.43C193.87,292.07,194,269.19,194,245.34Z"/><path class="cls-2" d="M254.33,158.52a5.59,5.59,0,0,1-5.76-.06c-3.5-2.48-3.88-7.6-.66-10.12q10.83-8.47,21.73-16.89,17-13.18,34-26.35c.75-.58,1.31-1.83,2.74-1.25s1.19,1.88,1.22,3c.06,2.3.32,4.35,4,4.86,1.42.2,1.86,1.28.65,2.22l-.9.71Q283.69,136,256.07,157.48A3.87,3.87,0,0,1,254.33,158.52Z"/><path class="cls-2" d="M273.68,176.68c.34-1.2,1.45-1.87,2.42-2.63q29.31-22.77,58.65-45.53c3.68-2.86,7.38-2.9,10.43-.2,2.69,2.39,3,5.28.81,7.65a13.69,13.69,0,0,1-1.73,1.47l-58.41,45.37a6.94,6.94,0,0,1-3.31,1.83c-.86-1.87.91-2.59,2-3.47,6.47-5.16,13-10.23,19.64-15.29,3-2.33,6.16-4.44,5.53-8.75-.23-1.57.68-3.23.53-4.94a31.92,31.92,0,0,1-.67,5.7c-.19.72-.26,1.64-1.48,1.69a2.38,2.38,0,0,1-2.23-1.4c-1.62-2.6-2.21-2.75-4.59-.93-7.74,5.92-15.35,11.95-23.11,17.85C277,176,276,177.58,273.68,176.68Z"/><path class="cls-2" d="M273.68,176.68q14-10.87,28.11-21.72c1-.78,1.86-2.31,3.52-1.7,1.87.68,1.79,2.41,1.91,3.87a21.55,21.55,0,0,0,.54,2.33,8.25,8.25,0,0,0,.39-6.88c-1.07-2.62,1-3.44,2.61-4.47,1.23-.78,1.29.38,1.39,1.07a15.85,15.85,0,0,1-.84,7.43c-.23.66-1,1.38-.42,2,2.55,2.74.07,3.89-1.69,5.26q-13.32,10.4-26.66,20.76c-2.83,1.17-5.41.31-7.52-1.58S272,179,273.68,176.68Z"/><path class="cls-2" d="M254.33,158.52l58.35-45.31c-3.06-1.07-4.17.52-6.17,1.41-.25-3.59-.47-6.84-.7-10.08-1.19-.19-1.63.5-2.2.94q-27.28,21.17-54.54,42.35c-2.48,1.93-2.72,8.15-.5,10.63-4.92-2.45-5.86-6.36-2.06-9.39,6.49-5.16,13.1-10.22,19.66-15.32q27.72-21.54,55.46-43.06a23.78,23.78,0,0,1,2.79-2,7.79,7.79,0,0,1,8.84,1.18c2.27,2.07,2.62,5.16.72,7.27a18,18,0,0,1-2.39,2Q294.81,127.67,258,156.22C256.9,157.09,255.92,158.14,254.33,158.52Z"/></svg>

