<svg id="Capa_1" data-name="Capa 1" xmlns="http://www.w3.org/2000/svg" viewBox="0 0 430.3 433.99"><defs><style>.cls-1{fill:#e94446;}.cls-2{fill:#fff;}</style></defs><rect class="cls-1" width="430.3" height="433.99"/><path class="cls-2" d="M202.25,254.89h16.54c.56,6.81,1.08,13.13,1.47,17.92l35.56-32.5h-167V228.4c19.77-5.93,40.19-9.65,57.64-17.81,32.9-15.39,49.38-41.19,55.25-71.92,2-10.48,1.93-10.49,16.95-8.44v81.88c-6.62-2.83-13.59-3.92-15.67-7.19-2.59-4.06-1.15-9.92-1.28-12L166.22,224.4H333.16v12.89c-16.93,4.28-34.14,6.76-49.29,12.83-37.35,15-56.62,41.66-63.36,75.2-1,5.17.07,10.93-9.9,10.61-10.44-.34-8.26-6.48-8.29-11.43C202.16,301.62,202.25,278.75,202.25,254.89Z"/><path class="cls-2" d="M202.25,254.89h16.54c.56,6.81,1.08,13.13,1.47,17.92l35.56-32.5h-167V228.4c19.77-5.93,40.19-9.65,57.64-17.81,32.9-15.39,49.38-41.19,55.25-71.92,2-10.48,1.93-10.49,16.95-8.44v81.88c-6.62-2.83-13.59-3.92-15.67-7.19-2.59-4.06-1.15-9.92-1.28-12L166.22,224.4H333.16v12.89c-16.93,4.28-34.14,6.76-49.29,12.83-37.35,15-56.62,41.66-63.36,75.2-1,5.17.07,10.93-9.9,10.61-10.44-.34-8.26-6.48-8.29-11.43C202.16,301.62,202.25,278.75,202.25,254.89Z"/><path class="cls-2" d="M262.62,168.08a5.62,5.62,0,0,1-5.76-.06c-3.5-2.48-3.88-7.61-.66-10.13Q267,149.43,277.93,141q17-13.18,34-26.35c.75-.58,1.31-1.83,2.74-1.25s1.19,1.88,1.22,3c.06,2.3.32,4.34,4,4.86,1.42.2,1.86,1.28.65,2.22l-.9.71L264.36,167A4,4,0,0,1,262.62,168.08Z"/><path class="cls-2" d="M282,186.24c.34-1.2,1.45-1.87,2.42-2.63Q313.7,160.84,343,138.08c3.68-2.86,7.38-2.9,10.43-.2,2.69,2.39,3,5.28.81,7.65a14.57,14.57,0,0,1-1.73,1.47q-29.21,22.69-58.41,45.36a6.92,6.92,0,0,1-3.31,1.84c-.86-1.87.91-2.59,2-3.47,6.47-5.16,13-10.24,19.64-15.29,3-2.33,6.16-4.44,5.53-8.75-.24-1.57.68-3.23.53-4.94a32,32,0,0,1-.67,5.7c-.19.72-.26,1.64-1.48,1.69a2.4,2.4,0,0,1-2.23-1.4c-1.62-2.6-2.21-2.75-4.59-.93-7.74,5.92-15.35,11.95-23.11,17.85C285.28,185.57,284.28,187.14,282,186.24Z"/><path class="cls-2" d="M282,186.24q14-10.87,28.11-21.73c1-.77,1.86-2.3,3.52-1.69,1.87.68,1.79,2.41,1.91,3.87a21.55,21.55,0,0,0,.54,2.33,8.25,8.25,0,0,0,.39-6.88c-1.07-2.62,1-3.44,2.61-4.47,1.23-.78,1.29.38,1.39,1.06a15.82,15.82,0,0,1-.84,7.43c-.23.67-1,1.39-.42,2,2.55,2.75.07,3.89-1.69,5.27L290.83,194.2c-2.83,1.17-5.41.31-7.52-1.58S280.32,188.52,282,186.24Z"/><path class="cls-2" d="M262.62,168.08,321,122.77c-3.06-1.07-4.17.52-6.17,1.41-.25-3.59-.47-6.84-.7-10.08-1.19-.19-1.63.5-2.2.94q-27.28,21.15-54.54,42.35c-2.48,1.93-2.72,8.15-.5,10.63-4.92-2.45-5.86-6.36-2.06-9.39,6.49-5.17,13.1-10.22,19.66-15.32q27.72-21.54,55.46-43.06a23.78,23.78,0,0,1,2.79-2,7.77,7.77,0,0,1,8.84,1.17c2.27,2.08,2.62,5.17.72,7.27a17.35,17.35,0,0,1-2.39,2q-36.78,28.56-73.57,57.11C265.19,166.65,264.21,167.7,262.62,168.08Z"/></svg>

