<svg id="Capa_1" data-name="Capa 1" xmlns="http://www.w3.org/2000/svg" viewBox="0 0 372.98 375.81">
  <defs>
    <style>.cls-1{fill:#e94446;}.cls-2{fill:none;stroke:#000;stroke-linecap:round;stroke-linejoin:round;stroke-width:8px;}</style>
  </defs>
  <polygon class="cls-1" points="129.41 112.14 129.41 273.19 137.28 276.35 275.37 276.35 278.75 272.28 280.56 114.7 247.95 108.63 141.17 108.63 129.41 112.14"/>
  <g id="QL7DM0.tif">
    <path class="cls-2" d="M138.3,110l-8.88,2.16V273.19c3.17.83,7.42,2.89,11.69,2.92,42.4.24,84.81.05,127.21.24,7,0,10.46-1.33,10.43-8.54-.25-50.64-.13-101.29-.15-151.93,0-1.14-.19-2.28-.35-4.06-3.31-.37-6.15-.94-9-1q-51-.51-102-.87c-9.35-.07-18.71,0-28.06,0"/>
    <path class="cls-2" d="M81.24,307.49h247"/>
    <path class="cls-2" d="M317.9,79.58c-3.12-.28-6.28-1-9.35-.77-20.59,1.61-41.24-1.43-61.71.18-17.9,1.42-35.63-2-53.33-.13-19.09,2-38.06-1.38-57.08-.09-4.41.3-8.8,1-14.49,1.63-12.36-3.77-26.68-.64-40.7-1.66"/>
    <path class="cls-2" d="M284.23,287.23c-17.45,1.33-35.29-2.41-50.89,2.35-36.57-5.39-72,.91-108.72-2.83-.83,7.13-1.53,13.09-2.22,19.05"/>
    <path class="cls-2" d="M123.34,82.12v15c3.67.41,6.51,1,9.35,1,32.74-.21,65.48-.65,98.22-.74,15.9-.05,31.8.51,47.7.78,8.56.15,14.85,5,14.86,12.66,0,18.86-.69,37.71-.76,56.56,0,11.81.82,23.63.8,35.45,0,13.22-.63,26.45-.84,39.67-.14,8.72-.11,17.45,0,26.17.06,3.92.51,7.84.75,11.37l-8.05,6.24L287,305.8"/>
    <path class="cls-2" d="M124.27,97.31c-9.3,5.89-10.3,14-9.67,23.65.73,11.18-1.45,22.49-1.42,33.75,0,13.22,1.33,26.44,1.67,39.67.31,11.82.07,23.64.07,36.29H79.37"/>
    <path class="cls-2" d="M96.21,106.59q-.46,11-.94,21.95"/>
    <path class="cls-2" d="M113.05,230.67c.31,11.82.64,23.64.92,35.46.22,8.79.16,17.66,10.3,22.79"/>
    <path class="cls-2" d="M313.23,106.59V127.7"/>
    <path class="cls-2" d="M313.23,207.88v20.26"/>
    <path class="cls-2" d="M95.27,207.88v20.26"/>
    <path class="cls-2" d="M95.27,258.53q.47,10.13.94,20.26"/>
    <path class="cls-2" d="M95.27,157.24V177.5"/>
    <path class="cls-2" d="M313.23,157.24V179l-17.78,1"/>
    <path class="cls-2" d="M313.23,258.53v20.26"/>
    <path class="cls-2" d="M330.06,104.91l-36.48.84"/>
    <path class="cls-2" d="M293.58,279.63c9.36.28,18.71.52,28.06.88,2.19.08,4.37.53,6.55.81"/>
    <path class="cls-2" d="M328.19,129.38H295.45"/>
    <path class="cls-2" d="M328.19,230.67H295.45"/>
    <path class="cls-2" d="M330.06,155.55H295.45"/>
    <path class="cls-2" d="M177.59,289.76v16"/>
    <path class="cls-2" d="M286.1,82.12q-.47,8-.94,16"/>
    <path class="cls-2" d="M81.24,281.32c7.48-.28,15-.52,22.45-.86,3.44-.16,6.86-.55,10.29-.83"/>
    <path class="cls-2" d="M330.06,205.35l-34.61.85"/>
    <path class="cls-2" d="M330.06,256l-34.61.84"/>
    <path class="cls-2" d="M114,105.75l-32.74-.84"/>
    <path class="cls-2" d="M81.24,180l30.87-.84"/>
    <path class="cls-2" d="M79.37,205.35l32.74.85"/>
    <path class="cls-2" d="M79.37,154.71l32.74.84"/>
    <path class="cls-2" d="M112.11,129.38H81.24"/>
    <path class="cls-2" d="M231.84,291.45V305.8"/>
    <path class="cls-2" d="M177.59,82.12V96.47"/>
    <path class="cls-2" d="M79.37,256l32.74.84"/>
    <path class="cls-2" d="M313.23,178.34l15,1.69"/>
  </g>
</svg>
