<svg id="Capa_1" data-name="Capa 1" xmlns="http://www.w3.org/2000/svg" viewBox="0 0 372.98 375.81">
  <defs>
    <style>.cls-1{fill:#e94446;}</style>
  </defs>
  <polygon class="cls-1" points="104.43 94.22 104.43 279.03 113.81 286.96 163.01 281.86 166.93 271.63 166.93 101.52 163.01 94.41 104.43 94.22"/>
  <path d="M223.78,263.47c6.79,0,13.05,0,19.31,0,3.95,0,6.38,1.32,6.35,5.21q-.06,10.29,0,20.58c0,3.78-2.16,5.38-6.23,5.36-6.44,0-12.87,0-19.48,0-.16,1.67.11,2.89-.42,3.67a57.93,57.93,0,0,1-4.37,5.09c-1.47-1.75-4.14-3.47-4.22-5.27-.42-10.36-.22-20.74-.26-31.11a27.42,27.42,0,0,0-.52-3.3c-8.41,0-16.8-.13-25.18.17-.93,0-2.4,2.44-2.51,3.82-.33,4.2-.11,8.43-.11,12.65,0,13.94-8.91,21.95-24.43,22q-26.24,0-52.48,0c-14.35,0-23.65-8.26-23.66-21q0-94.43,0-188.85C85.57,79.48,95,71,109.56,71q26.53-.12,53.07,0c14.1.08,23.44,8.62,23.54,21.3,0,3,0,5.9,0,9.62h28.38V79.43c0-1.23,0-2.46,0-3.69,0-2.8.34-5.6,4.3-5.8,4.18-.22,4.47,2.62,4.58,5.41,0,.86.19,1.72.37,3.29,8,0,16.06.18,24-.07,5.15-.16,7.07,1.69,6.92,6.2-.22,6.49-.11,13,0,19.49.09,4.8-3,5.89-7.59,5.81-7.62-.14-15.25,0-23.33,0V166.2c6.27,0,12.49.17,18.7,0,5.17-.18,7,1.89,6.92,6.32-.18,6.85-.27,13.72,0,20.57.21,5.16-2.4,6.87-7.82,6.66-5.83-.22-11.69,0-17.91,0Zm-46.27-76.71q0-46.95,0-93.91c0-9-5.5-14-15.66-14q-25.36-.1-50.72,0c-11.78,0-16.84,4.58-16.85,15.15q0,92.87,0,185.71c0,10.22,4.73,14.63,16,14.69q25.37.14,50.72,0c11.76,0,16.53-4.33,16.54-14.76Q177.56,233.18,177.51,186.76Zm37.05-3.59V132c0-12,0-12-13.71-12-14.68,0-14.68,0-14.68,13.2,0,35.48.12,71-.13,106.45,0,5,1.7,6.45,7,6.08a115,115,0,0,1,15.31,0c4.9.32,6.39-1.22,6.33-5.62C214.42,221.13,214.56,202.15,214.56,183.17Zm9.33-96.25v14.59h21.82V86.92ZM223.5,174c0,5.2-.18,9.93.14,14.62a4.22,4.22,0,0,0,3,2.84c4.4.33,8.85.14,13.39.14V174Zm16.68,98.08H224V286.3h16.18ZM213.77,111.69l0-1h-27l0,1ZM186.6,254l.09,1.71c9.07.21,18.14.21,27.21.07l-.05-1.78Z"/>
  <path d="M292.38,78.58c7.45,0,14.91.09,22.36,0,4.49-.07,6.48,1.76,6.45,5.7,0,6.67,0,13.34,0,20,0,3.92-2.36,5.74-6.62,5.74H269.84c-4,0-6.36-1.58-6.37-5.34q0-10.53,0-21c0-4,2.62-5,6.54-5,7.45.07,14.91,0,22.36,0Zm-18.66,23.59h38.13v-15a8.66,8.66,0,0,0-1.52-.44c-8.06,0-16.12-.11-24.18-.12-15.42,0-15.42,0-13.53,14C272.64,100.77,272.82,100.91,273.72,102.17Z"/>
  <path d="M287.17,263.45c7.08,0,14.16.11,21.23,0,4.66-.09,7,1.49,6.88,5.84q-.21,9.76,0,19.52c.08,4.34-2.24,5.92-6.87,5.88q-21.82-.13-43.65,0c-4.53,0-7-1.45-6.93-5.86.14-6.51.11-13,0-19.52-.1-4.42,2.48-5.87,7-5.82C272.23,263.5,279.7,263.45,287.17,263.45Zm18.76,23.05V271.64c-12.3,0-24.22-.07-36.14.12-1.13,0-3.11,1.62-3.2,2.6-.37,3.94-.15,7.92-.15,12.14Z"/>
  <path d="M287.1,166.2c7.44,0,14.89.1,22.34,0,3.68-.07,5.67,1.32,5.71,4.52.1,8.07.05,16.14,0,24.21,0,3.27-2.05,4.76-5.58,4.76-15.3,0-30.6.05-45.89,0-3.7,0-5.87-1.53-5.85-5.12q.09-11.58,0-23.16c0-3.54,1.77-5.07,5.73-5,7.84.1,15.69,0,23.53,0ZM306,174.32a8.41,8.41,0,0,0-1.9-.5c-7.86,0-15.71-.09-23.56,0-14.87.09-14.87.11-14.17,13.59,0,.52-.19,1.21.1,1.55.83,1,1.86,2.51,2.84,2.52,12.11.17,24.23.11,36.69.11Z"/>
  <path d="M256.16,245.84c-7.65,0-15.32-.13-23,0-4.69.11-7-1.61-7-5.8,0-6.68,0-13.36.08-20,0-3.67,2.1-5.31,6.3-5.28q23.85.14,47.72,0c4.14,0,6.27,1.44,6.27,5.23,0,6.68,0,13.35.09,20,0,4.15-2.1,6-6.88,5.87-7.85-.2-15.71-.06-23.57-.06Zm-20.86-8H266c13.12,0,13.12,0,11.72-11.65,0-.18.06-.42-.05-.52-.9-.9-1.83-2.55-2.78-2.56-13.08-.17-26.16-.12-39.6-.12Z"/>
  <path d="M256.34,150.86c-7.64,0-15.28-.15-22.91,0-5,.13-7.36-1.62-7.3-6.09.09-5.62.17-11.23.1-16.85,0-4,2.18-5.71,6.53-5.66q23.79.25,47.58.44c3.32,0,5.79.77,5.83,4.37.06,6,.27,11.92.43,17.88.11,4.5-2.32,6.14-7.31,6-7.64-.27-15.3-.07-23-.07Zm-21.4-20.46c0,3.29.19,5.9-.05,8.47-.32,3.4,1.82,4.31,4.94,4.29,11.39-.07,22.77-.13,34.15-.37,1.23,0,3.15-.92,3.53-1.82,3.13-7.51.43-10.74-8.53-10.57-2.55,0-5.11,0-7.66,0Z"/>
  <path d="M303.93,130.1v12.44c2.59.23,5,.62,7.47.62,8.24,0,16.5-.45,24.71-.1,2.24.1,4.37,2.4,6.54,3.69-1.88,1.36-3.74,3.85-5.67,3.89-12.54.28-25.11.14-37.65-.2-1.39,0-3.81-2.23-3.87-3.49a155.79,155.79,0,0,1,.33-20.5c.12-1.35,3.28-3.45,5.12-3.53,11.75-.48,23.53-.51,35.3-.64,3.15,0,6.61.63,5.9,4.08-.31,1.51-3.73,3.5-5.81,3.58C325.76,130.3,315.19,130.1,303.93,130.1Z"/>
  <path d="M304.1,222.83v15c6.86,0,13.63,0,20.4,0,3.34,0,6.8-.46,10,.22,1.89.4,3.3,2.61,4.92,4-1.59,1.25-3.12,3.49-4.79,3.58-7.63.41-15.3.3-23,.22-18-.2-16.53,2.45-16.53-15q0-5.54,0-11.07c0-3.47,1.89-5,5.86-5,11,.1,22-.14,33,.2,1.86.06,3.64,2.28,5.45,3.5-1.78,1.45-3.51,4.07-5.37,4.15C324.29,223.06,314.5,222.83,304.1,222.83Z"/>
  <path d="M171.72,187.86q0,42.72,0,85.46c0,9.76-4.39,13.64-15.43,13.66q-21.22,0-42.47,0c-9.23,0-14-4.38-14-12.71q0-87.08,0-174.13C99.74,92.69,103.68,89,112,89q23.6-.18,47.18,0c9.14.07,12.56,3.43,12.57,11.83Q171.74,144.32,171.72,187.86Zm-63-.39q0,21.63,0,43.25c0,14.41,0,28.83,0,43.24,0,3.57,1,5.42,5.76,5.32,13.55-.3,27.11-.12,40.67-.15,7.19,0,7.82-.53,7.82-6.86q0-84.9.09-169.81c0-4.39-1.57-5.81-6.42-5.73-13.56.21-27.13.27-40.68,0-5.53-.14-7.43,1.17-7.38,6.41C108.82,131.21,108.67,159.34,108.67,187.47Z"/>
</svg>
