<svg id="Capa_1" data-name="Capa 1" xmlns="http://www.w3.org/2000/svg" viewBox="0 0 372.98 375.81">
  <defs>
    <style>.cls-1{fill:#e94446;}.cls-2,.cls-3{fill:none;}.cls-2{stroke:#000;stroke-linecap:round;stroke-linejoin:round;stroke-width:8px;}</style>
  </defs>
  <polygon class="cls-1" points="108.26 118.81 108.26 237.68 179.1 231.03 180.26 224.87 180.26 83.31 177.67 79.05 109.64 110.56 108.26 118.81"/>
  <g id="_2vaE7D.tif" data-name="2vaE7D.tif">
    <path class="cls-2" d="M180.26,78c.83,2.79,2.37,5.58,2.38,8.37q.23,70.14,0,140.29c0,2.79-1.55,5.58-2.38,8.37"/>
    <path class="cls-2" d="M196.47,79.05c17.46,8.73,34.42,18.32,52.63,25.73,7,2.86,8.49,5.69,8.49,10.91q0,57.59,0,115.16v16.76l28.69,6v49.46"/>
    <path class="cls-2" d="M181.5,62.3V75.91c-24.69,10.91-48,20.92-70.9,31.69-3,1.43-4.93,6.69-5,10.19-.35,37.69-.21,75.38-.21,113.06V302"/>
    <path class="cls-2" d="M93,186.88c-9.69,3.12-13.26-.9-13.69-8.37-.18-3.14,0-6.3,0-10.48l-19.72-1.91-2.72-14.31H45.56c0,15.17.16,29.83-.13,44.49-.06,3.11,3.07,8.22-4.86,8.38"/>
    <path class="cls-2" d="M332.41,204.68l-10.9-.43c-1-5.23-1.91-10-2.9-15.18l-15.51-2.39V159.14h-20v27.74h-13.1"/>
    <path class="cls-2" d="M107.92,108.37c-4.47-7.55-3.51-13.35,6.16-17.91,17.72-8.35,34.78-17.66,52.54-25.93,9.49-4.42,19.36-5.8,30-.29,16.6,8.62,34,16.22,51,24.23,11.31,5.31,12.07,7.08,7.48,17.8"/>
    <path class="cls-2" d="M109.17,240.28c19.54-2.1,39.06-4.28,58.62-6.22,4.45-.44,9-.07,15-.07V302"/>
    <path class="cls-2" d="M250.1,302c0-2.09,0-4.18,0-6.28-.1-11.51-.1-11.51-13.72-11.51H224.13c-1,6.89-1.86,12.86-2.72,18.84"/>
    <path class="cls-2" d="M253.84,240.28c-17.46-1.75-34.92-3.52-52.39-5.18-1.19-.11-2.49.64-3.73,1"/>
    <path class="cls-2" d="M319.94,305.18c-23.28-.69-46.56-1.85-69.84-1.94-17.46-.06-34.92,1.72-52.38,1.83-22.45.13-44.9-.58-67.35-.93"/>
    <path class="cls-2" d="M117.9,304.14H70.5"/>
  </g>
  <path d="M201.06,109.2a3.75,3.75,0,1,0-3.75-3.75,3.8,3.8,0,0,0,3.75,3.75Z"/>
  <path d="M224.58,118.82a3.75,3.75,0,1,0-3.75-3.75,3.79,3.79,0,0,0,3.75,3.75Z"/>
  <path d="M243.82,126.84a3.75,3.75,0,1,0-3.75-3.75,3.79,3.79,0,0,0,3.75,3.75Z"/>
  <path d="M200,135.39a3.75,3.75,0,1,0-3.75-3.75,3.79,3.79,0,0,0,3.75,3.75Z"/>
  <path d="M200,161.05a3.75,3.75,0,1,0-3.75-3.75,3.79,3.79,0,0,0,3.75,3.75Z"/>
  <path d="M200,182.44a3.75,3.75,0,1,0-3.75-3.75,3.8,3.8,0,0,0,3.75,3.75Z"/>
  <path d="M198.92,208.1a3.75,3.75,0,1,0-3.75-3.75,3.8,3.8,0,0,0,3.75,3.75Z"/>
  <path d="M221.9,141.81a3.75,3.75,0,1,0-3.75-3.75,3.79,3.79,0,0,0,3.75,3.75Z"/>
  <path d="M221.9,164.26a3.75,3.75,0,1,0-3.75-3.75,3.82,3.82,0,0,0,3.75,3.75Z"/>
  <path d="M220.3,186.18a3.75,3.75,0,1,0-3.75-3.75,3.79,3.79,0,0,0,3.75,3.75Z"/>
  <path d="M220.84,212.38a3.75,3.75,0,1,0-3.75-3.75,3.8,3.8,0,0,0,3.75,3.75Z"/>
  <path d="M242.22,148.22a3.75,3.75,0,1,0-3.75-3.75,3.79,3.79,0,0,0,3.75,3.75Z"/>
  <path d="M241.68,168.54a3.75,3.75,0,1,0-3.75-3.75,3.79,3.79,0,0,0,3.75,3.75Z"/>
  <path d="M241.15,191a3.75,3.75,0,1,0-3.75-3.75,3.79,3.79,0,0,0,3.75,3.75Z"/>
  <path d="M242.22,217.72a3.75,3.75,0,1,0-3.75-3.75,3.79,3.79,0,0,0,3.75,3.75Z"/>
  <polyline class="cls-3" points="105.64 117.79 105.36 240.28 182.76 230.57"/>
</svg>
