<svg id="Capa_1" data-name="Capa 1" xmlns="http://www.w3.org/2000/svg" viewBox="0 0 372.98 375.81">
  <defs>
    <style>.cls-1{fill:#e94446;}</style>
  </defs>
  <rect class="cls-1" x="60.04" y="82.08" width="253.83" height="130.34"/>
  <path d="M213.05,235.89v2.9c0,21.14,0,42.27.07,63.4a6.86,6.86,0,0,0,1.58,4.15c5.12,5.79,10.39,11.47,15.7,17.08a5.21,5.21,0,0,0,3,1.28c2.38.28,4.84,0,7.18.48a11.42,11.42,0,0,1,9.37,11.08c.09,3.07.07,6.15,0,9.23-.06,2.74-1.58,4.29-4.31,4.52-.74.07-1.49,0-2.24,0H130.56c-5.29,0-6.49-1.16-6.44-6.42,0-3.15-.2-6.37.37-9.43a11,11,0,0,1,11.57-9.31c4.41.24,7.19-1.37,9.89-4.59,4.32-5.16,9.1-9.93,13.59-15A5.4,5.4,0,0,0,161,302.1c.08-21.46.06-42.93.05-64.39,0-.49-.07-1-.14-1.82h-120c-5.09,0-6.09-1-6.09-6.14v-164c0-4.81,1.2-6,6.07-6H333.1c5.06,0,6.21,1.13,6.21,6.11v164c0,5-1,6-5.94,6H213.05Zm117.69-8.52V68.42H43.31v159ZM182.88,324.64v-2.93c0-5.07,0-10.15,0-15.22,0-3.27,1.5-5.13,4.08-5.19s4.17,1.85,4.2,5.07,0,6.65,0,10v8.24h13.18V236.11H169.67v88.53Zm-50.1,16.77H241.27c.67-7.36.09-8.27-7-8.24q-47.27.16-94.52,0C132.68,333.15,132.13,334.07,132.78,341.41Zm28.08-25-7.49,8.12h7.49ZM220,324.67l-6.77-7.27v7.27Z"/>
  <path d="M187.05,216H62c-5.8,0-6.71-.88-6.71-6.58V82.86c0-4.76,1.31-6.1,6-6.1q125.78,0,251.56,0c4.41,0,5.82,1.42,5.82,5.81q0,63.9,0,127.78c0,4.36-1.29,5.62-5.67,5.62ZM203.42,85.36v2.57c0,5.08,0,10.15,0,15.23,0,3.59-1.54,5.53-4.3,5.49s-4.1-1.83-4.11-5.36V85.43H179.92v3.2q0,40.43,0,80.87a17.23,17.23,0,0,1-.07,2.49,4.26,4.26,0,0,1-4.22,3.83,4.17,4.17,0,0,1-4.08-4.19c0-.83,0-1.67,0-2.5V85.36H156.4v2.82c0,5.32,0,10.65,0,16,0,2.86-1.74,4.52-4.26,4.49s-4.05-1.69-4.06-4.62c0-5.33,0-10.65,0-16,0-.87-.09-1.74-.13-2.62H132.85v2.67q0,40.3,0,80.62c0,1,0,2-.05,3a4.13,4.13,0,1,1-8.26-.06c0-.74,0-1.49,0-2.24v-84h-15.2c0,6.19,0,12.17,0,18.15,0,3.32-1.49,5.07-4.15,5.08s-4.15-1.73-4.17-5.06c0-5.32-.07-10.65,0-16,0-1.81-.43-2.54-2.36-2.45a83.11,83.11,0,0,1-9.73,0c-2.53-.17-3.2.6-3.19,3.16.1,26.87.07,53.75.06,80.62a29.15,29.15,0,0,1-.08,3.24,4,4,0,0,1-4.08,3.63c-2.05-.16-3.68-1.12-4-3.38a23.37,23.37,0,0,1-.17-3.24V88.81a8.69,8.69,0,0,0-.06-2.23c-.14-.51-.7-1.28-1.08-1.29-4.12-.1-8.25-.06-12.42-.06V207.39H77.34c0-.63.1-1,.1-1.45,0-4.74,0-9.48.07-14.22a4.14,4.14,0,0,1,4.29-4.24,4.19,4.19,0,0,1,4,4.28c.07,1.49,0,3,0,4.49,0,3.71,0,7.42,0,11.36,4.35,0,8.33-.12,12.31,0,2.29.11,2.92-.6,2.92-2.91q-.12-40.56,0-81.12a18.27,18.27,0,0,1,.14-3.23,4.09,4.09,0,0,1,8,.07,19.27,19.27,0,0,1,.14,3.23v83.68h15.21c0-5.38-.05-10.53,0-15.67a4.12,4.12,0,1,1,8.23-.2c.14,3.08.06,6.16.07,9.24,0,2.21,0,4.42,0,6.66H148v-3.14q0-40.44,0-80.88a22.74,22.74,0,0,1,.05-2.74,3.86,3.86,0,0,1,3.85-3.57,3.78,3.78,0,0,1,4.15,2.89,12.83,12.83,0,0,1,.3,3.46q0,40.42,0,80.87v3.09h15.12V205.7c0-4.66,0-9.32,0-14a4.09,4.09,0,0,1,4-4.23,4.21,4.21,0,0,1,4.26,3.76,23.15,23.15,0,0,1,.09,3.23c0,4.3,0,8.6,0,12.93H195V149.6q0-13.86,0-27.71c0-3,1.68-4.86,4.18-4.84s4.14,1.91,4.22,4.87c0,.67,0,1.33,0,2v83.69h13.09c.56,0,1.12-.1,2-.19V193.69c0-4.14,1.33-6.14,4.1-6.21s4.34,2.07,4.34,6.27v13.64h15V204.2q0-40.42,0-80.87a18.79,18.79,0,0,1,0-2.49,4.2,4.2,0,0,1,8.37.14c.08.83,0,1.66,0,2.5v84h15v-2.61c0-4.24-.05-8.48,0-12.73,0-2.71,1.86-4.61,4.22-4.62s4.17,1.89,4.21,4.61c.05,3.66,0,7.32,0,11v4.38h15v-3.1q0-40.56,0-81.12a12.77,12.77,0,0,1,.21-3,4.18,4.18,0,0,1,4.46-3.2,4.3,4.3,0,0,1,3.76,4c.06.83,0,1.66,0,2.5v83.86h12.7v-122h-12.7c0,6.28,0,12.35,0,18.42,0,3-1.58,4.81-4.17,4.81s-4.19-1.77-4.27-4.78c-.05-1.49,0-3,0-4.49v-14h-15v84.81c0,3.55-1.55,5.6-4.23,5.61s-4.22-2.09-4.23-5.64c0-.75,0-1.5,0-2.25V85.36H250.53c0,.94-.11,1.75-.11,2.56,0,5.24,0,10.48,0,15.72,0,3.21-1.6,5-4.26,5s-4.17-1.85-4.19-5.1c0-4,0-8,0-12V85.44h-15v3.2q0,40.56,0,81.12a15.87,15.87,0,0,1-.08,2.49,4.33,4.33,0,0,1-4.21,3.58,4.25,4.25,0,0,1-4.08-3.69,18.94,18.94,0,0,1-.06-2.5V85.36Z"/>
</svg>
