<svg id="Capa_1" data-name="Capa 1" xmlns="http://www.w3.org/2000/svg" viewBox="0 0 372.98 375.81">
  <defs>
    <style>.cls-1{fill:#e94446;}</style>
  </defs>
  <polygon class="cls-1" points="140 106.97 140 280.56 183.82 292.65 183.82 110.42 140 106.97"/>
  <polygon class="cls-1" points="74.41 101.41 74.41 270.69 121.82 280.56 121.82 106.24 74.41 101.41"/>
  <polygon class="cls-1" points="199.66 110.42 314.63 106.24 314.63 287.35 199.66 292.65 199.66 110.42"/>
  <path d="M281.3,306c-12.89.85-24.76,1.72-36.64,2.38-4.42.25-4.74,2.46-4.78,5.53-.09,7.71-.33,7.84-9.19,7.8-15.92-.07-14.45,1.43-14.49-12.54,0-4,0-8.08,0-12-11.24-2-11.86-1.64-11.86,7.36v.58c0,14.87,0,14.77-17,14.26-4.84-.14-7.06-1.86-7-6,0-4.66.17-9.34-.17-14a5.27,5.27,0,0,0-2.59-4c-2.79-1.16-6-1.55-9.07-2.2-7.57-1.63-15.15-3.22-23.68-5,0,4.81-.09,8.84,0,12.88.1,3.47-1.95,4.94-5.72,5.08h-.68c-23.53-.11-20.52,2.18-20.35-16.48,0-4.62-1.68-6.47-6.7-7.36-10.3-1.83-20.5-4.09-32.09-6.44,0,4.43-.26,8.4.06,12.33.45,5.36-1.64,7.76-8.35,7.75-15.81,0-15.81.21-15.81-13.63q0-87.51-.09-175c0-3.71-2.07-7.38-2.58-11.13C51,85.33,57,78,67.51,72.78a80.33,80.33,0,0,1,35.37-8.7c20.19-.12,40.41.6,60.57,1.68,34.64,1.86,69.25,4.11,103.84,6.55a155.67,155.67,0,0,1,25.86,4c19.81,4.82,27.63,14.28,27.58,32q-.08,28.82-.15,57.64c0,39.29-.09,78.57.1,117.85,0,5.39-1.38,8.58-8.39,8.75-1.31,0-3.48,2.22-3.65,3.56a71.9,71.9,0,0,0-.16,11.65c.11,4.1-1.87,6.21-6.81,6.08-3.82-.09-7.67-.14-11.49.06C284.34,314.19,280.21,313,281.3,306Zm29.47-22c.18-1.81.45-3.32.45-4.84,0-54.21,0-108.43.14-162.65,0-5-2.13-6.28-7.59-6-30.82,1.44-61.65,2.78-92.49,3.85-5.61.2-7.08,1.81-7.06,6.54.18,54,.11,108.09.13,162.13,0,1.87.23,3.73.38,6Zm-193-8.38V269.2l0-155c0-1.16.43-2.52-.12-3.45-.78-1.31-2.16-3.15-3.5-3.3-11.3-1.25-22.65-2.17-34.92-3.27V236.4c0,8.94-.13,17.88.14,26.81,0,1.72,1.36,4.6,2.72,4.92C93.51,270.8,105.09,273,117.79,275.58Zm62,11.77V114.24l-34.85-4v5.54q0,28.54-.05,57.1c0,33.8-.07,67.6.15,101.39,0,2.18,1.72,5.81,3.51,6.28C158.58,283.21,168.92,285.09,179.75,287.35ZM305.57,90.66c-2.51-1.36-5.41-3.68-8.82-4.62-8.33-2.28-16.79-5-25.38-5.64q-66.66-4.61-133.44-8.08a307,307,0,0,0-38.37.18C87.41,73.36,75.35,76,66.24,83.75c-2.39,2-2.84,5.76-4.18,8.71,2.6.8,5.13,2,7.8,2.32,38.87,4,77.76,7.91,116.62,12,6.47.68,11.73-.36,16.59-4.25a37.61,37.61,0,0,1,9.67-5.11c18.62-7.33,38.41-9.54,58.61-9C282.68,88.65,294,89.85,305.57,90.66ZM127.2,297.84c6.88,1.65,9-.78,8.68-5.76-.19-2.71-.37-5.43-.37-8.14q-.07-83.07-.09-166.14v-8.29L127.2,109Zm62.45-85.23q0,45.46,0,90.93c0,1.36-.31,2.8.12,4.06s1.61,2.33,2.47,3.48a21.13,21.13,0,0,0,2.76-3.79c.44-1,.09-2.3.09-3.47q0-34.95-.09-69.92Q195,178,195.1,122a20,20,0,0,0-.47-5.19c-.17-.62-1.64-1.36-2.49-1.34a2.89,2.89,0,0,0-2.2,1.55,25.26,25.26,0,0,0-.28,5.22Q189.65,167.43,189.65,212.61ZM67.57,102.29l-2.71.91c-.13,1.52-.37,3-.37,4.57q0,87.47,0,174.93c0,1-.33,2.11.13,2.88.59,1,1.89,2.3,2.78,2.25a4,4,0,0,0,2.78-2.33c.49-1.44.17-3.08.17-4.63q0-53.94-.08-107.88c0-21.57.07-43.15-.11-64.72C70.11,106.27,68.46,104.28,67.57,102.29Zm148.74,3.95,86.79-3.52C290.27,92.91,235.71,95.4,216.31,106.24Zm82.58,186.41c-20.83,1.07-40.79,2.05-60.73,3.13-13,.71-13.15.78-12.67,12.2.08,1.86,1.76,3.67,2.71,5.5.84-1.72,2.44-3.47,2.39-5.17-.16-5.15,2.17-7.24,8.27-7.49,13.49-.54,26.95-1.54,40.41-2.51,9.73-.7,9.72-.81,12.27,7.22h7.35Z"/>
</svg>
